<svg xmlns="http://www.w3.org/2000/svg" viewBox="0 0 2001.99 1264.47"><defs><style>.cls-1{fill:#f4ea90;}</style></defs><title>Asset 2</title><g id="Layer_2" data-name="Layer 2"><g id="Layer_1-2" data-name="Layer 1"><ellipse class="cls-1" cx="331.18" cy="989.1" rx="331.18" ry="180.28"/><path class="cls-1" d="M1000.92,0C825.28,0,674.85,98.36,606.3,239.2c-1.84,3.9-4.52,7.34-6.24,11.29-.25.55-.34,1.18-.58,1.73-21,48.72-32.86,101.55-32.86,156.11,0,211.86,184.2,384.25,410.59,384.25,134,0,242.95-101.74,242.95-226.81S1111.17,339,977.21,339a97.84,97.84,0,1,0,0,195.68v48.17c-80.53,0-146-65.48-146-146s65.48-146,146-146c160.54,0,291.11,123.33,291.11,274.93,0,94.45-50.73,177.88-127.76,227.41,171.13-54.86,295-205.51,295-384.85C1435.58,182.81,1241,0,1000.92,0Z"/><ellipse class="cls-1" cx="1670.81" cy="989.1" rx="331.18" ry="180.28"/><path class="cls-1" d="M1145.53,726.53c-46.11-7.53-94-12.81-144.61-12.81A859.87,859.87,0,0,0,780.54,742.3C839,772.35,905.15,791,976.47,791,1042.21,791,1101.75,766.27,1145.53,726.53Z"/><path class="cls-1" d="M1201.51,736.45a295.93,295.93,0,0,1-225,102.7,474.87,474.87,0,0,1-260.7-77.36C582.59,811.39,495,894.63,495,989.1c0,152.08,226.5,275.37,505.89,275.37S1506.8,1141.18,1506.8,989.1C1506.8,875.85,1381,778.75,1201.51,736.45Z"/><path class="cls-1" d="M518.08,407.8c0-11.81,2.75-23.09,3.72-34.73C360.3,393.8,235.43,522.53,235.43,679.93,235.43,851.75,383.71,991,566.62,991c127.32,0,236.56-68.25,292-167.22C663.13,774.31,518.08,607.46,518.08,407.8Z"/><path class="cls-1" d="M878.81,779.75c11.42-31.5,19-64.69,19-99.81,0-170.62-146.3-308.82-327.43-310.76-1.32,12.9-4.13,25.49-4.13,38.62C566.24,587.88,699.84,738.33,878.81,779.75Z"/><path class="cls-1" d="M1220,565.55c0-4.82-1.2-9.33-1.53-14.08a293.49,293.49,0,0,0-28.57,121.14C1208.52,640.58,1220,604.48,1220,565.55Z"/><path class="cls-1" d="M1520.55,366.87c-108.43,0-203.8,49.65-264.21,125.31,6.95,23.51,11.87,47.79,11.87,73.37,0,68.23-27.42,129.95-71.14,178.07,32.13,140.24,164.6,245.47,323.49,245.47,182.9,0,331.18-139.29,331.18-311.11S1703.45,366.87,1520.55,366.87Z"/></g></g></svg>